<svg xmlns="http://www.w3.org/2000/svg" xmlns:xlink="http://www.w3.org/1999/xlink" width="500" zoomAndPan="magnify" viewBox="0 0 375 374.999991" height="500" preserveAspectRatio="xMidYMid meet" version="1.0"><defs><g/></defs><path fill="#000000" d="M 103.308594 142.410156 C 99.386719 143.410156 95.1875 145.1875 92.460938 147.488281 C 89.503906 149.980469 88.261719 152.398438 88.035156 154.480469 C 87.800781 156.667969 88.667969 158.523438 89.992188 159.824219 C 95.222656 164.9375 103.96875 164.910156 111.054688 161.160156 C 115.429688 158.847656 118.855469 156.648438 121.519531 154.609375 C 120.765625 156.628906 119.664062 158.644531 118.148438 160.632812 C 112.128906 168.519531 103.699219 172.546875 95.757812 174.550781 C 83.785156 177.574219 72.902344 176.003906 72.902344 176.003906 C 72.523438 175.949219 72.167969 176.210938 72.113281 176.589844 C 72.058594 176.96875 72.320312 177.320312 72.703125 177.375 C 72.703125 177.375 83.839844 178.992188 96.101562 175.898438 C 104.316406 173.820312 113.027344 169.632812 119.257812 161.46875 C 121.386719 158.683594 122.746094 155.835938 123.5 153.003906 C 125.011719 151.703125 126.210938 150.472656 127.144531 149.332031 C 128.386719 147.816406 129.171875 146.441406 129.628906 145.238281 C 129.71875 145.203125 129.8125 145.164062 129.90625 145.121094 C 132.007812 144.175781 132.960938 142.015625 133.414062 139.25 C 134.027344 135.53125 133.777344 130.675781 135.121094 126.8125 C 137.238281 120.742188 142.269531 118.398438 145.871094 119.207031 C 146.246094 119.292969 146.621094 119.058594 146.703125 118.683594 C 146.789062 118.3125 146.554688 117.941406 146.179688 117.855469 C 142.074219 116.929688 136.21875 119.4375 133.804688 126.359375 C 132.4375 130.296875 132.664062 135.234375 132.042969 139.023438 C 131.734375 140.886719 131.242188 142.464844 130.109375 143.382812 C 130.363281 141.390625 129.621094 140.058594 128.734375 139.480469 C 128.265625 139.175781 127.742188 139.0625 127.238281 139.132812 C 125.175781 139.429688 124.542969 141.480469 125.164062 143.21875 C 125.519531 144.222656 126.296875 145.089844 127.382812 145.390625 C 127.578125 145.445312 127.785156 145.484375 128.003906 145.5 C 127.574219 146.394531 126.941406 147.382812 126.0625 148.457031 C 125.480469 149.167969 124.792969 149.914062 123.984375 150.691406 C 124.761719 145.65625 123.753906 140.734375 121.898438 136.359375 C 118.742188 128.925781 113.140625 123.082031 109.851562 120.949219 C 104.796875 117.664062 100.589844 116.289062 97.425781 116.273438 C 95.167969 116.265625 93.410156 116.933594 92.195312 118.082031 C 90.96875 119.242188 90.277344 120.898438 90.210938 122.910156 C 90.121094 125.734375 91.285156 129.296875 93.941406 133.074219 C 96.503906 136.71875 100 140.023438 103.308594 142.410156 Z M 122.246094 152.25 C 123.5625 146.863281 122.589844 141.554688 120.613281 136.902344 C 117.59375 129.773438 112.242188 124.15625 109.089844 122.109375 C 104.335938 119.019531 100.394531 117.675781 97.421875 117.660156 C 95.585938 117.652344 94.144531 118.15625 93.152344 119.089844 C 92.175781 120.015625 91.65625 121.347656 91.601562 122.953125 C 91.519531 125.550781 92.640625 128.804688 95.082031 132.28125 C 97.816406 136.175781 101.65625 139.683594 105.109375 142.003906 C 106.898438 141.648438 108.566406 141.476562 109.925781 141.515625 C 111.257812 141.550781 112.320312 141.796875 112.980469 142.214844 C 113.574219 142.589844 113.902344 143.101562 113.953125 143.722656 C 114.023438 144.609375 113.785156 145.230469 113.371094 145.640625 C 112.804688 146.207031 111.804688 146.410156 110.480469 146.121094 C 108.984375 145.796875 106.996094 144.851562 104.847656 143.460938 C 100.8125 144.324219 96.226562 146.128906 93.359375 148.546875 C 90.773438 150.730469 89.617188 152.804688 89.421875 154.628906 C 89.234375 156.351562 89.925781 157.8125 90.96875 158.832031 C 95.792969 163.550781 103.867188 163.394531 110.402344 159.9375 C 115.625 157.175781 119.464844 154.589844 122.246094 152.25 Z M 106.867188 143.101562 C 108.347656 143.953125 109.695312 144.53125 110.777344 144.765625 C 111.199219 144.859375 111.574219 144.894531 111.890625 144.855469 C 112.09375 144.832031 112.269531 144.78125 112.386719 144.660156 C 112.5625 144.488281 112.59375 144.207031 112.566406 143.835938 C 112.542969 143.5625 112.3125 143.402344 112.003906 143.261719 C 111.484375 143.035156 110.757812 142.925781 109.890625 142.898438 C 109 142.875 107.976562 142.945312 106.867188 143.101562 Z M 128.542969 144.097656 C 128.621094 143.820312 128.675781 143.558594 128.710938 143.304688 C 128.886719 142.132812 128.636719 141.265625 128.167969 140.800781 C 127.949219 140.585938 127.691406 140.46875 127.4375 140.503906 C 126.585938 140.628906 126.277344 141.371094 126.335938 142.113281 C 126.394531 142.863281 126.804688 143.648438 127.523438 143.972656 C 127.820312 144.105469 128.160156 144.152344 128.542969 144.097656 Z M 128.542969 144.097656 " fill-opacity="1" fill-rule="evenodd"/><g fill="#000000" fill-opacity="1"><g transform="translate(113.285461, 190.232668)"><g><path d="M 31.695312 -19.191406 C 30.613281 -19.691406 27.707031 -19.980469 26.835938 -20.0625 C 28.246094 -23.800781 33.4375 -37.21875 33.605469 -40.042969 C 33.648438 -41.414062 32.484375 -41.207031 31.777344 -40.582031 C 31.113281 -39.960938 31.652344 -39.214844 32.402344 -39.710938 C 32.691406 -37.511719 27.582031 -24.675781 25.878906 -20.148438 C 21.394531 -20.519531 17.445312 -20.5625 13.125 -20.4375 C 15.453125 -26.667969 20.601562 -40.957031 15.039062 -40.957031 C 9.554688 -40.957031 0.539062 -27.042969 2.867188 -26.835938 C 3.738281 -26.75 4.527344 -27.914062 3.78125 -28.121094 C 4.652344 -31.238281 11.050781 -40.167969 14.871094 -40.167969 C 19.191406 -40.167969 13.5 -24.757812 11.839844 -20.394531 C 9.511719 -20.269531 4.445312 -19.980469 1.992188 -19.316406 C 0.0820312 -18.734375 -0.414062 -17.945312 0.957031 -16.988281 C 5.648438 -13.5 4.984375 -7.976562 3.117188 -1.328125 C 2.699219 0.125 3.863281 0.0820312 4.695312 -1.289062 C 7.0625 -5.191406 11.050781 -14.914062 12.667969 -19.191406 C 16.160156 -19.273438 22.015625 -19.273438 25.503906 -19.109375 C 23.011719 -12.628906 17.945312 0.0429688 20.769531 0.0429688 C 21.683594 0.0429688 22.097656 -1.203125 21.308594 -1.246094 C 20.023438 -1.953125 25.921875 -17.570312 26.460938 -19.066406 C 27.539062 -18.984375 30.074219 -18.777344 30.820312 -18.320312 C 30.363281 -17.695312 30.988281 -17.199219 31.613281 -17.695312 C 32.277344 -18.277344 32.359375 -18.859375 31.695312 -19.191406 Z M 5.277344 -4.902344 C 6.730469 -11.671875 4.941406 -15.285156 1.371094 -18.109375 C 3.238281 -18.898438 9.59375 -19.109375 11.382812 -19.148438 C 9.59375 -14.496094 7.476562 -9.429688 5.277344 -4.902344 Z M 5.277344 -4.902344 "/></g></g></g><g fill="#000000" fill-opacity="1"><g transform="translate(149.878972, 190.232668)"><g><path d="M 13.210938 -18.445312 C 10.757812 -16.035156 7.769531 -13.125 4.820312 -11.546875 C 0.375 -9.136719 -3.117188 -10.675781 -0.789062 -15.660156 C 0.871094 -15.703125 2.78125 -16.074219 4.320312 -17.238281 C 6.9375 -19.191406 6.4375 -21.890625 3.90625 -21.183594 C 1.785156 -20.601562 -0.832031 -18.359375 -2.117188 -15.078125 C -4.320312 -9.472656 -0.167969 -7.601562 5.109375 -10.632812 C 8.308594 -12.421875 11.175781 -15.453125 13.625 -18.152344 C 13.957031 -18.484375 13.542969 -18.777344 13.210938 -18.445312 Z M 3.820312 -20.148438 C 5.234375 -20.480469 5.152344 -19.066406 3.78125 -18.070312 C 2.660156 -17.199219 1.121094 -16.949219 -0.0820312 -16.90625 C 1.121094 -18.734375 2.78125 -19.855469 3.820312 -20.148438 Z M 3.820312 -20.148438 "/></g></g></g><g fill="#000000" fill-opacity="1"><g transform="translate(162.879849, 190.232668)"><g><path d="M 15.078125 -18.445312 C 13.167969 -16.53125 10.964844 -14.371094 8.804688 -12.753906 C 4.902344 -9.886719 1.039062 -9.261719 1.746094 -13.167969 C 1.992188 -14.414062 2.660156 -16.035156 3.820312 -17.820312 C 4.484375 -18.691406 4.277344 -19.066406 3.40625 -18.941406 C 2.992188 -18.859375 2.410156 -18.734375 1.828125 -18.691406 C 0.539062 -18.609375 0.664062 -19.066406 1.535156 -20.0625 C 2.285156 -20.851562 1.203125 -21.269531 0.582031 -20.5625 C -1.078125 -18.566406 -0.871094 -17.320312 1.453125 -17.488281 C 1.871094 -17.53125 2.160156 -17.570312 2.492188 -17.613281 C 1.621094 -16.160156 0.914062 -14.539062 0.582031 -13 C -0.375 -7.933594 4.363281 -8.183594 9.304688 -12.046875 C 11.714844 -13.957031 13.667969 -16.117188 15.496094 -18.152344 C 15.828125 -18.484375 15.410156 -18.777344 15.078125 -18.445312 Z M 15.078125 -18.445312 "/></g></g></g><g fill="#000000" fill-opacity="1"><g transform="translate(177.625251, 190.232668)"><g/></g></g><g fill="#000000" fill-opacity="1"><g transform="translate(190.127692, 190.232668)"><g><path d="M 7.644531 -4.652344 C 10.507812 -9.554688 12.835938 -17.863281 14.332031 -23.011719 C 18.734375 -26.75 22.429688 -32.359375 23.84375 -36.679688 C 25.835938 -42.660156 21.226562 -42.246094 18.359375 -37.175781 C 16.285156 -33.4375 14.414062 -27.332031 13.167969 -23.261719 C 6.855469 -17.902344 2.992188 -19.898438 2.824219 -19.898438 C 1.953125 -19.898438 1.453125 -18.609375 2.328125 -18.609375 C 5.691406 -18.402344 8.515625 -18.652344 12.710938 -21.726562 C 11.296875 -16.988281 9.054688 -8.847656 6.523438 -4.570312 C 5.773438 -4.484375 4.859375 -4.363281 3.988281 -4.195312 C -0.996094 -3.074219 -0.457031 1.039062 3.199219 -0.207031 C 4.695312 -0.707031 5.980469 -2.117188 7.019531 -3.65625 C 13.167969 -4.070312 24.675781 -3.03125 23.96875 -0.707031 C 23.636719 0.375 24.964844 0.125 25.257812 -0.746094 C 26.460938 -4.777344 11.796875 -4.941406 7.644531 -4.652344 Z M 19.273438 -36.96875 C 21.726562 -41.332031 24.425781 -41.082031 22.804688 -36.636719 C 21.558594 -33.273438 18.445312 -28.414062 14.871094 -24.839844 C 15.867188 -28.207031 17.40625 -33.730469 19.273438 -36.96875 Z M 3.78125 -3.238281 C 4.527344 -3.40625 5.316406 -3.488281 5.855469 -3.574219 C 5.109375 -2.492188 4.195312 -1.496094 3.117188 -1.121094 C 0.871094 -0.25 0.746094 -2.535156 3.78125 -3.238281 Z M 3.78125 -3.238281 "/></g></g></g><g fill="#000000" fill-opacity="1"><g transform="translate(220.199993, 190.232668)"><g><path d="M 13.210938 -18.445312 C 10.757812 -16.035156 7.769531 -13.125 4.820312 -11.546875 C 0.375 -9.136719 -3.117188 -10.675781 -0.789062 -15.660156 C 0.871094 -15.703125 2.78125 -16.074219 4.320312 -17.238281 C 6.9375 -19.191406 6.4375 -21.890625 3.90625 -21.183594 C 1.785156 -20.601562 -0.832031 -18.359375 -2.117188 -15.078125 C -4.320312 -9.472656 -0.167969 -7.601562 5.109375 -10.632812 C 8.308594 -12.421875 11.175781 -15.453125 13.625 -18.152344 C 13.957031 -18.484375 13.542969 -18.777344 13.210938 -18.445312 Z M 3.820312 -20.148438 C 5.234375 -20.480469 5.152344 -19.066406 3.78125 -18.070312 C 2.660156 -17.199219 1.121094 -16.949219 -0.0820312 -16.90625 C 1.121094 -18.734375 2.78125 -19.855469 3.820312 -20.148438 Z M 3.820312 -20.148438 "/></g></g></g><g fill="#000000" fill-opacity="1"><g transform="translate(233.20087, 190.232668)"><g><path d="M 16.863281 -18.445312 C 11.257812 -13.667969 6.5625 -14.039062 5.898438 -15.371094 C 6.5625 -16.617188 7.1875 -17.988281 7.433594 -19.234375 C 7.644531 -20.394531 6.480469 -20.230469 5.566406 -18.777344 C 4.734375 -17.445312 4.363281 -15.785156 4.902344 -14.789062 C 4.113281 -13.417969 1.828125 -10.300781 0.582031 -10.34375 C -1.578125 -10.425781 0.5 -17.113281 1.496094 -19.441406 C 1.828125 -20.230469 0.707031 -20.394531 0.289062 -19.566406 C -1.578125 -15.867188 -2.90625 -9.261719 0.0820312 -9.304688 C 1.953125 -9.304688 4.113281 -12.421875 5.234375 -14.289062 C 6.4375 -13.085938 11.507812 -12.835938 17.28125 -18.109375 C 17.613281 -18.402344 17.320312 -18.859375 16.863281 -18.445312 Z M 6.148438 -18.109375 C 6.105469 -17.652344 5.980469 -17.074219 5.691406 -16.40625 C 5.734375 -16.988281 5.898438 -17.53125 6.148438 -18.109375 Z M 6.148438 -18.109375 "/></g></g></g><g fill="#000000" fill-opacity="1"><g transform="translate(249.690798, 190.232668)"><g><path d="M 13.210938 -18.445312 C 10.757812 -16.035156 7.769531 -13.125 4.820312 -11.546875 C 0.375 -9.136719 -3.117188 -10.675781 -0.789062 -15.660156 C 0.871094 -15.703125 2.78125 -16.074219 4.320312 -17.238281 C 6.9375 -19.191406 6.4375 -21.890625 3.90625 -21.183594 C 1.785156 -20.601562 -0.832031 -18.359375 -2.117188 -15.078125 C -4.320312 -9.472656 -0.167969 -7.601562 5.109375 -10.632812 C 8.308594 -12.421875 11.175781 -15.453125 13.625 -18.152344 C 13.957031 -18.484375 13.542969 -18.777344 13.210938 -18.445312 Z M 3.820312 -20.148438 C 5.234375 -20.480469 5.152344 -19.066406 3.78125 -18.070312 C 2.660156 -17.199219 1.121094 -16.949219 -0.0820312 -16.90625 C 1.121094 -18.734375 2.78125 -19.855469 3.820312 -20.148438 Z M 3.820312 -20.148438 "/></g></g></g><g fill="#000000" fill-opacity="1"><g transform="translate(262.691674, 190.232668)"><g><path d="M 12.089844 -18.566406 C 10.46875 -16.492188 8.226562 -13.832031 6.148438 -12.128906 C 2.078125 -8.847656 -1.246094 -10.050781 0.582031 -17.488281 C 1.121094 -17.820312 4.320312 -20.601562 7.101562 -24.050781 C 17.902344 -37.59375 10.175781 -40.210938 2.617188 -25.878906 C 1.328125 -23.386719 0.25 -20.8125 -0.457031 -18.277344 C -3.199219 -8.308594 1.871094 -7.269531 6.6875 -11.507812 C 8.847656 -13.417969 10.925781 -16.035156 12.585938 -18.320312 C 12.878906 -18.691406 12.378906 -18.941406 12.089844 -18.566406 Z M 3.78125 -25.710938 C 10.425781 -38.964844 15.867188 -35.972656 6.355469 -24.464844 C 4.777344 -22.554688 2.992188 -20.769531 1.078125 -19.191406 C 1.785156 -21.351562 2.699219 -23.554688 3.78125 -25.710938 Z M 3.78125 -25.710938 "/></g></g></g><g fill="#000000" fill-opacity="1"><g transform="translate(274.529533, 190.232668)"><g/></g></g><g fill="#000000" fill-opacity="1"><g transform="translate(287.031974, 190.232668)"><g><path d="M 20.9375 -1.289062 C 20.726562 -1.203125 20.480469 -1.289062 20.355469 -1.496094 C 18.070312 -4.695312 30.78125 -35.351562 32.027344 -40.085938 C 32.402344 -41.457031 31.402344 -41.25 30.699219 -40.335938 C 27.582031 -36.179688 12.917969 -0.664062 4.734375 -0.957031 C -4.238281 -1.246094 17.445312 -41.082031 11.878906 -41.082031 C 8.101562 -41.082031 -0.25 -26.378906 0.289062 -22.347656 C 0.457031 -21.308594 1.453125 -21.226562 1.910156 -21.394531 C 2.867188 -21.808594 2.660156 -23.011719 1.746094 -22.597656 C 1.496094 -22.515625 1.414062 -22.679688 1.328125 -22.847656 C 0.5 -25.628906 9.222656 -40.003906 11.296875 -40.003906 C 14.664062 -40.003906 -5.691406 -0.167969 4.238281 -0.0820312 C 13.667969 0.0429688 27.292969 -32.566406 30.53125 -38.464844 C 28.246094 -31.984375 16.988281 -5.609375 19.273438 -0.664062 C 19.691406 0.125 20.644531 0.125 21.101562 -0.0429688 C 22.058594 -0.457031 21.890625 -1.703125 20.9375 -1.289062 Z M 20.9375 -1.289062 "/></g></g></g><g fill="#000000" fill-opacity="1"><g transform="translate(317.14583, 190.232668)"><g><path d="M 18.109375 -18.445312 C 14.621094 -14.914062 10.632812 -12.046875 6.273438 -10.507812 C 7.433594 -12.667969 8.433594 -15.785156 8.472656 -17.820312 C 8.515625 -20.480469 6.480469 -20.519531 4.238281 -17.945312 C 0.5 -13.625 -4.113281 -2.078125 -6.523438 2.824219 C -6.355469 -0.664062 -1.289062 -14.246094 1.164062 -18.402344 C 1.621094 -19.191406 0.5 -19.480469 0 -18.652344 C -2.203125 -14.828125 -7.101562 -1.203125 -7.558594 2.742188 C -7.726562 4.527344 -6.8125 5.234375 -5.816406 3.28125 C -4.03125 -0.289062 1.121094 -12.753906 5.109375 -17.363281 C 6.5625 -19.023438 7.144531 -18.859375 7.144531 -17.40625 C 7.101562 -15.246094 5.898438 -11.714844 4.734375 -10.050781 C 4.320312 -9.929688 3.488281 -9.679688 3.238281 -9.59375 C 2.660156 -9.386719 2.203125 -8.847656 2.660156 -8.390625 C 3.074219 -8.101562 3.65625 -7.976562 4.320312 -8.265625 C 4.734375 -8.472656 5.066406 -8.804688 5.359375 -9.179688 C 10.300781 -10.800781 14.789062 -14 18.527344 -18.152344 C 18.859375 -18.484375 18.445312 -18.816406 18.109375 -18.445312 Z M 18.109375 -18.445312 "/></g></g></g></svg>