<svg xmlns="http://www.w3.org/2000/svg" xmlns:xlink="http://www.w3.org/1999/xlink" width="500" zoomAndPan="magnify" viewBox="0 0 375 374.999991" height="500" preserveAspectRatio="xMidYMid meet" version="1.0"><rect x="-37.5" width="450" fill="#ffffff" y="-37.499999" height="449.999989" fill-opacity="1"/><rect x="-37.5" width="450" fill="#ffffff" y="-37.499999" height="449.999989" fill-opacity="1"/><path fill="#000000" d="M 169.9375 186.261719 C 155.300781 190 139.632812 196.65625 129.449219 205.277344 C 118.425781 214.613281 113.78125 223.671875 112.941406 231.46875 C 112.058594 239.65625 115.292969 246.613281 120.25 251.472656 C 139.765625 270.625 172.398438 270.527344 198.839844 256.484375 C 215.15625 247.820312 227.941406 239.589844 237.886719 231.949219 C 235.074219 239.511719 230.964844 247.0625 225.3125 254.5 C 202.839844 284.046875 171.382812 299.128906 141.757812 306.640625 C 97.074219 317.964844 56.472656 312.078125 56.472656 312.078125 C 55.050781 311.871094 53.730469 312.855469 53.527344 314.273438 C 53.320312 315.691406 54.304688 317.011719 55.722656 317.21875 C 55.722656 317.21875 97.292969 323.265625 143.035156 311.671875 C 173.691406 303.902344 206.195312 288.21875 229.445312 257.644531 C 237.390625 247.199219 242.457031 236.539062 245.269531 225.941406 C 250.921875 221.058594 255.390625 216.457031 258.871094 212.179688 C 263.503906 206.5 266.433594 201.347656 268.140625 196.84375 C 268.480469 196.714844 268.828125 196.570312 269.175781 196.410156 C 277.027344 192.875 280.578125 184.777344 282.277344 174.417969 C 284.5625 160.488281 283.621094 142.3125 288.640625 127.847656 C 296.535156 105.101562 315.3125 96.320312 328.753906 99.359375 C 330.152344 99.675781 331.542969 98.796875 331.859375 97.402344 C 332.175781 96.003906 331.296875 94.609375 329.898438 94.296875 C 314.578125 90.832031 292.730469 100.214844 283.734375 126.144531 C 278.617188 140.882812 279.476562 159.386719 277.148438 173.578125 C 276.003906 180.554688 274.171875 186.460938 269.929688 189.898438 C 270.886719 182.4375 268.113281 177.449219 264.808594 175.289062 C 263.054688 174.144531 261.097656 173.710938 259.21875 173.984375 C 251.527344 175.09375 249.167969 182.78125 251.480469 189.28125 C 252.816406 193.046875 255.707031 196.289062 259.757812 197.425781 C 260.488281 197.628906 261.261719 197.769531 262.078125 197.824219 C 260.472656 201.179688 258.121094 204.882812 254.84375 208.902344 C 252.671875 211.566406 250.101562 214.363281 247.082031 217.273438 C 249.988281 198.410156 246.214844 179.988281 239.292969 163.601562 C 227.527344 135.753906 206.617188 113.875 194.347656 105.875 C 175.484375 93.578125 159.785156 88.433594 147.984375 88.375 C 139.558594 88.332031 133.003906 90.84375 128.460938 95.148438 C 123.882812 99.488281 121.300781 105.691406 121.058594 113.21875 C 120.71875 123.796875 125.070312 137.140625 134.976562 151.296875 C 144.535156 164.949219 157.582031 177.320312 169.9375 186.261719 Z M 240.597656 223.109375 C 245.511719 202.941406 241.871094 183.058594 234.507812 165.621094 C 223.230469 138.925781 203.269531 117.890625 191.507812 110.226562 C 173.761719 98.65625 159.0625 93.621094 147.957031 93.566406 C 141.113281 93.53125 135.730469 95.417969 132.039062 98.914062 C 128.382812 102.378906 126.445312 107.378906 126.253906 113.386719 C 125.9375 123.109375 130.128906 135.308594 139.234375 148.320312 C 149.445312 162.902344 163.765625 176.046875 176.65625 184.734375 C 183.328125 183.40625 189.550781 182.765625 194.628906 182.902344 C 199.601562 183.035156 203.558594 183.957031 206.027344 185.523438 C 208.238281 186.929688 209.464844 188.839844 209.652344 191.179688 C 209.917969 194.492188 209.023438 196.820312 207.484375 198.359375 C 205.371094 200.476562 201.628906 201.234375 196.691406 200.15625 C 191.113281 198.9375 183.691406 195.40625 175.667969 190.195312 C 160.609375 193.425781 143.507812 200.183594 132.808594 209.242188 C 123.152344 217.417969 118.84375 225.195312 118.105469 232.027344 C 117.414062 238.472656 119.988281 243.941406 123.890625 247.769531 C 141.890625 265.433594 172.015625 264.851562 196.402344 251.898438 C 215.882812 241.554688 230.214844 231.878906 240.597656 223.109375 Z M 183.214844 188.84375 C 188.734375 192.03125 193.765625 194.203125 197.796875 195.082031 C 199.378906 195.425781 200.777344 195.5625 201.949219 195.421875 C 202.71875 195.328125 203.367188 195.132812 203.808594 194.6875 C 204.457031 194.039062 204.585938 192.992188 204.472656 191.597656 C 204.390625 190.574219 203.535156 189.96875 202.378906 189.449219 C 200.445312 188.589844 197.730469 188.179688 194.488281 188.09375 C 191.171875 188.003906 187.34375 188.261719 183.214844 188.84375 Z M 264.085938 192.574219 C 264.378906 191.539062 264.589844 190.550781 264.726562 189.605469 C 265.371094 185.210938 264.4375 181.976562 262.691406 180.230469 C 261.882812 179.425781 260.914062 178.984375 259.960938 179.125 C 256.789062 179.582031 255.640625 182.371094 255.859375 185.144531 C 256.082031 187.957031 257.609375 190.894531 260.296875 192.109375 C 261.390625 192.605469 262.65625 192.78125 264.085938 192.574219 Z M 264.085938 192.574219 " fill-opacity="1" fill-rule="evenodd"/></svg>